HIERARCHY
ROOT Hips
{
	OFFSET 0.000000 0.000000 0.000000
	CHANNELS 6 Xposition Yposition Zposition Xrotation Yrotation Zrotation
	JOINT LeftUpLeg_virtual
	{
		OFFSET 0.000000 0.000000 0.000000
		CHANNELS 3 Xrotation Yrotation Zrotation
		JOINT LeftUpLeg
		{
			OFFSET 13.026900 -6.336304 -1.092800
			CHANNELS 3 Xrotation Yrotation Zrotation
			JOINT LeftLeg
			{
				OFFSET 0.524474 -46.096886 9.782700
				CHANNELS 3 Xrotation Yrotation Zrotation
				JOINT LeftFoot
				{
					OFFSET -0.524474 -53.427422 -12.948200
					CHANNELS 3 Xrotation Yrotation Zrotation
					JOINT LeftToeBase
					{
						OFFSET 0.192200 -14.009700 16.364100
						CHANNELS 3 Xrotation Yrotation Zrotation
						JOINT LeftToe_End
						{
							OFFSET -1.784700 -0.561700 9.474800
							CHANNELS 3 Xrotation Yrotation Zrotation
							End Site
							{
								OFFSET 0 0 0
							}
						}
					}
				}
			}
		}
	}
	JOINT RightUpLeg_virtual
	{
		OFFSET 0.000000 0.000000 0.000000
		CHANNELS 3 Xrotation Yrotation Zrotation
		JOINT RightUpLeg
		{
			OFFSET -12.883000 -6.336304 -1.092800
			CHANNELS 3 Xrotation Yrotation Zrotation
			JOINT RightLeg
			{
				OFFSET -0.524587 -46.096825 9.782800
				CHANNELS 3 Xrotation Yrotation Zrotation
				JOINT RightFoot
				{
					OFFSET 0.524587 -53.427383 -12.948300
					CHANNELS 3 Xrotation Yrotation Zrotation
					JOINT RightToeBase
					{
						OFFSET -0.192200 -14.009700 16.364100
						CHANNELS 3 Xrotation Yrotation Zrotation
						JOINT RightToe_End
						{
							OFFSET 1.784700 -0.561700 9.474800
							CHANNELS 3 Xrotation Yrotation Zrotation
							End Site
							{
								OFFSET 0 0 0
							}
						}
					}
				}
			}
		}
	}
	JOINT Spine_virtual
	{
		OFFSET 0.000000 0.000000 0.000000
		CHANNELS 3 Xrotation Yrotation Zrotation
		JOINT Spine
		{
			OFFSET 0.072000 7.257294 -0.789700
			CHANNELS 3 Xrotation Yrotation Zrotation
			JOINT Spine1
			{
				OFFSET 0.000000 12.508769 -0.658067
				CHANNELS 3 Xrotation Yrotation Zrotation
				JOINT Spine1_split
				{
					OFFSET 0.000000 12.508769 -0.658067
					CHANNELS 3 Xrotation Yrotation Zrotation
					JOINT Spine2
					{
						OFFSET 0.000000 12.508769 -0.658067
						CHANNELS 3 Xrotation Yrotation Zrotation
						JOINT Neck_virtual
						{
							OFFSET 0.000000 0.000000 0.000000
							CHANNELS 3 Xrotation Yrotation Zrotation
							JOINT Neck
							{
								OFFSET 0.000000 14.033295 7.520400
								CHANNELS 3 Xrotation Yrotation Zrotation
								JOINT Head
								{
									OFFSET 0.000000 8.198502 5.703100
									CHANNELS 3 Xrotation Yrotation Zrotation
									JOINT HeadTop_End
									{
										OFFSET 0.000000 17.760803 13.332701
										CHANNELS 3 Xrotation Yrotation Zrotation
										End Site
										{
											OFFSET 0 0 0
										}
									}
								}
							}
						}
						JOINT LeftShoulder_virtual
						{
							OFFSET 0.000000 0.000000 0.000000
							CHANNELS 3 Xrotation Yrotation Zrotation
							JOINT LeftShoulder
							{
								OFFSET 6.292450 5.785301 -0.669000
								CHANNELS 3 Xrotation Yrotation Zrotation
								JOINT LeftShoulder_split
								{
									OFFSET 6.292450 5.785301 -0.669000
									CHANNELS 3 Xrotation Yrotation Zrotation
									JOINT LeftArm
									{
										OFFSET 13.907140 -6.093903 1.965100
										CHANNELS 3 Xrotation Yrotation Zrotation
										JOINT LeftForeArm
										{
											OFFSET 34.140198 0.000000 0.000000
											CHANNELS 3 Xrotation Yrotation Zrotation
											JOINT LeftHand
											{
												OFFSET 40.960209 0.000000 0.000000
												CHANNELS 3 Xrotation Yrotation Zrotation
												End Site
												{
													OFFSET 0 0 0
												}
											}
										}
									}
								}
							}
						}
						JOINT RightShoulder_virtual
						{
							OFFSET 0.000000 0.000000 0.000000
							CHANNELS 3 Xrotation Yrotation Zrotation
							JOINT RightShoulder
							{
								OFFSET -6.292450 5.785301 -0.669000
								CHANNELS 3 Xrotation Yrotation Zrotation
								JOINT RightShoulder_split
								{
									OFFSET -6.292450 5.785301 -0.669000
									CHANNELS 3 Xrotation Yrotation Zrotation
									JOINT RightArm
									{
										OFFSET -13.907140 -6.093903 1.965100
										CHANNELS 3 Xrotation Yrotation Zrotation
										JOINT RightForeArm
										{
											OFFSET -34.140198 0.000000 0.000000
											CHANNELS 3 Xrotation Yrotation Zrotation
											JOINT RightHand
											{
												OFFSET -40.960209 0.000000 0.000000
												CHANNELS 3 Xrotation Yrotation Zrotation
												End Site
												{
													OFFSET 0 0 0
												}
											}
										}
									}
								}
							}
						}
					}
				}
			}
		}
	}
}
MOTION
Frames: 5
Frame Time: 0.03333333
11.749336 78.303230 65.147469 0.000000 0.000000 0.000000 -11.820693 -37.529663 -7.840185 -59.043775 -12.339648 22.190998 65.019685 -7.349746 6.600267 9.188909 2.496493 -27.468519 -4.019805 -3.722377 2.164180 0.000000 0.000000 0.000000 -12.348363 -36.541341 -8.125435 -33.523866 -13.096819 -36.373469 73.994458 22.600758 -14.258913 1.505211 -28.381359 30.386996 -11.067283 8.256880 -10.081642 0.000000 0.000000 0.000000 -9.891150 -35.674389 -8.499344 17.108758 7.538903 -8.443988 3.386135 -0.943898 1.362483 0.237404 -1.266870 0.165839 0.000000 0.000000 0.000000 10.461255 0.601076 2.778691 4.325978 16.871032 5.699679 0.672956 7.535612 -31.144761 0.000000 0.000000 0.000000 7.101903 -1.117373 1.711190 0.320208 -3.774488 -5.383742 7.148868 -4.554720 2.058070 -67.718880 13.222751 -35.692916 173.530791 -64.445382 168.196140 0.000000 0.000000 0.000000 6.042648 -1.904711 1.379059 -1.697425 8.470522 -9.359897 -13.594117 -3.130114 -5.164869 -40.481527 21.319093 86.508635 -141.409505 70.200759 142.344735 0.000000 0.000000 0.000000 
10.988352 80.012657 61.446396 0.000000 0.000000 0.000000 -11.424178 -37.935957 -6.812551 -58.037538 -10.671109 21.852502 59.579494 -6.710927 7.683883 12.518442 2.452050 -29.843111 -4.339399 -4.158256 2.440491 0.000000 0.000000 0.000000 -13.198238 -37.341628 -7.485547 -28.274400 -14.870351 -33.894623 72.909421 22.166027 -15.374027 -8.681447 -29.154444 32.403182 -7.050846 8.590886 -12.919008 0.000000 0.000000 0.000000 -10.858207 -37.197408 -8.174329 14.922840 8.551528 -7.518975 3.514274 -0.825653 0.861122 0.091708 -1.073720 0.157597 0.000000 0.000000 0.000000 10.456842 0.647146 2.247523 4.918532 16.223625 5.134587 0.468584 5.085697 -31.248426 0.000000 0.000000 0.000000 7.289699 -0.995568 1.111515 -0.061524 -0.898380 -5.267462 7.883175 -5.871952 3.325209 -66.761752 14.753349 -37.877675 170.637865 -65.684427 164.549093 0.000000 0.000000 0.000000 6.281999 -1.868447 0.835794 -2.143147 8.790195 -9.166186 -13.948834 -2.580710 -5.980048 -41.242834 21.477641 87.384662 -137.125842 70.899030 138.180888 0.000000 0.000000 0.000000 
10.066137 82.207443 57.575607 0.000000 0.000000 0.000000 -10.038575 -37.504750 -5.058048 -58.179483 -8.414588 21.862080 54.065325 -6.643828 8.357585 16.134833 1.647245 -31.705670 -3.645219 -4.478507 2.686155 0.000000 0.000000 0.000000 -12.204109 -37.026951 -5.812707 -24.025662 -15.989225 -31.219678 70.768888 21.177053 -15.564937 -17.521136 -31.063495 31.725945 -0.377601 8.223359 -14.571363 0.000000 0.000000 0.000000 -10.853770 -37.825601 -7.337885 12.997261 9.103245 -6.863981 3.587705 -0.771138 0.408084 -0.009422 -0.700241 0.159872 0.000000 0.000000 0.000000 10.200589 0.669405 1.654650 5.447626 15.421946 4.678407 0.492173 2.734427 -31.572816 0.000000 0.000000 0.000000 7.377525 -0.912420 0.640602 -0.415502 1.635357 -4.685604 8.932515 -6.914110 4.019307 -66.540591 15.045858 -40.245418 168.659514 -67.109949 162.064639 0.000000 0.000000 0.000000 6.392187 -1.810530 0.388058 -2.724341 8.825974 -9.592044 -13.199869 -1.161367 -5.698477 -41.828307 20.854560 88.286206 -136.216512 70.834471 136.723640 0.000000 0.000000 0.000000 
9.176126 84.498474 53.773483 0.000000 0.000000 0.000000 -8.121147 -37.128847 -3.118073 -58.164942 -5.200511 22.131336 49.464746 -6.783743 8.376026 18.009611 1.001575 -31.876216 -3.395529 -4.834447 3.218833 0.000000 0.000000 0.000000 -9.522494 -36.345574 -3.642633 -20.718021 -16.885385 -28.199700 67.514904 19.625572 -14.723513 -24.320273 -33.005448 28.472229 2.606563 8.000090 -15.133756 0.000000 0.000000 0.000000 -10.002052 -37.966064 -6.105533 11.615454 9.129981 -6.621157 3.603689 -0.799746 0.080159 0.011560 -0.362291 0.156870 0.000000 0.000000 0.000000 9.776835 0.685765 1.163642 5.772697 14.556219 4.331832 0.214104 0.778672 -32.252607 0.000000 0.000000 0.000000 7.312916 -0.878486 0.377488 -0.755193 3.521884 -3.734393 9.968971 -7.365498 4.030928 -67.311152 14.571497 -42.303917 167.192034 -68.835569 160.408004 0.000000 0.000000 0.000000 6.265012 -1.737838 0.146231 -3.397528 8.673329 -10.516158 -11.438450 0.249922 -4.351519 -42.678557 19.590000 88.983322 -139.106775 70.228927 138.509488 0.000000 0.000000 0.000000 
8.522964 86.770256 49.776615 0.000000 0.000000 0.000000 -6.022152 -37.581743 -1.282930 -57.045525 -1.193256 22.407320 46.492743 -6.930079 7.672163 15.876464 1.255828 -29.685006 -4.529095 -5.259315 4.098131 0.000000 0.000000 0.000000 -6.768601 -36.605910 -1.934084 -19.770261 -17.748689 -25.472589 64.021733 17.745072 -13.164602 -26.733550 -33.991218 25.757325 1.709175 8.059496 -14.969949 0.000000 0.000000 0.000000 -8.360724 -37.811565 -4.630639 10.831264 8.693787 -6.752375 3.481007 -0.888714 -0.060655 0.090102 -0.138869 0.136338 0.000000 0.000000 0.000000 9.211637 0.696666 0.943001 5.790079 13.793686 4.040184 -0.533661 -0.399560 -33.360884 0.000000 0.000000 0.000000 7.038024 -0.874766 0.379522 -1.084172 4.652429 -2.517427 10.480024 -7.458713 2.920220 -69.046615 13.767078 -43.953278 165.294963 -70.837162 158.603194 0.000000 0.000000 0.000000 5.945887 -1.685488 0.155885 -4.091654 8.504097 -11.488428 -9.546905 1.112313 -2.830096 -43.862474 17.946664 89.504336 -144.241683 69.514530 142.206028 0.000000 0.000000 0.000000 
